<?xml version="1.0" encoding="UTF-8"?>
<svg version="1.1" viewBox="0 0 24 24" xmlns="http://www.w3.org/2000/svg" xmlns:xlink="http://www.w3.org/1999/xlink">
    <!--Generated by IJSVG (https://github.com/curthard89/IJSVG)-->
    <defs>
        <path id="path-2" d="M1,9c-0.6,0 -1,-0.4 -1,-1v-7c0,-0.6 0.4,-1 1,-1c0.6,0 1,0.4 1,1v7c0,0.6 -0.4,1 -1,1Z"></path>
        <path id="path-1" d="M3,6c-1.7,0 -3,-1.3 -3,-3c0,-1.7 1.3,-3 3,-3c1.7,0 3,1.3 3,3c0,1.7 -1.3,3 -3,3Zm0,-4c-0.6,0 -1,0.4 -1,1c0,0.6 0.4,1 1,1c0.6,0 1,-0.4 1,-1c0,-0.6 -0.4,-1 -1,-1Z"></path>
    </defs>
    <g fill="#FFFFFF">
        <use transform="translate(0, 18)" xlink:href="#path-1"></use>
        <use transform="translate(18, 18)" xlink:href="#path-1"></use>
        <use transform="translate(9, 18)" xlink:href="#path-1"></use>
        <use transform="translate(9, 0)" xlink:href="#path-1"></use>
        <path d="M19,9c-0.6,0 -1,-0.4 -1,-1v-5c0,-0.6 -0.4,-1 -1,-1h-14c-0.6,0 -1,0.4 -1,1v5c0,0.6 -0.4,1 -1,1c-0.6,0 -1,-0.4 -1,-1v-5c0,-1.7 1.3,-3 3,-3h14c1.7,0 3,1.3 3,3v5c0,0.6 -0.4,1 -1,1Z" transform="translate(2, 11)"></path>
        <use transform="translate(11, 11)" xlink:href="#path-2"></use>
        <use transform="translate(11, 4)" xlink:href="#path-2"></use>
    </g>
</svg>