<?xml version="1.0" encoding="UTF-8"?>
<svg version="1.1" viewBox="0 0 24 24" xmlns="http://www.w3.org/2000/svg" xmlns:xlink="http://www.w3.org/1999/xlink">
    <!--Generated by IJSVG (https://github.com/curthard89/IJSVG)-->
    <defs>
        <path id="path-1" d="M1.1,5.1c-0.3,0 -0.5,-0.1 -0.7,-0.3c-0.4,-0.4 -0.4,-1 0,-1.4l3,-3c0.4,-0.4 1,-0.4 1.4,0c0.4,0.4 0.4,1 0,1.4l-3,3c-0.2,0.2 -0.4,0.3 -0.7,0.3Z"></path>
        <path id="path-2" d="M4.1,5.1c-0.3,0 -0.5,-0.1 -0.7,-0.3l-3,-3c-0.4,-0.4 -0.4,-1 0,-1.4c0.4,-0.4 1,-0.4 1.4,0l3,3c0.4,0.4 0.4,1 0,1.4c-0.2,0.2 -0.4,0.3 -0.7,0.3Z"></path>
    </defs>
    <g fill="#FFFFFF">
        <use transform="translate(16.9, 10.9)" xlink:href="#path-1"></use>
        <use transform="translate(16.9, 7.9)" xlink:href="#path-2"></use>
        <use transform="translate(0.9, 7.9)" xlink:href="#path-1"></use>
        <path d="M4.1,5.1c-0.3,0 -0.5,-0.1 -0.7,-0.3l-3,-3c-0.4,-0.4 -0.4,-1 1.11022e-16,-1.4c0.4,-0.4 1,-0.4 1.4,0l3,3c0.4,0.4 0.4,1 0,1.4c-0.2,0.2 -0.4,0.3 -0.7,0.3Z" transform="translate(0.9, 10.9)"></path>
        <path d="M20,2h-19c-0.6,0 -1,-0.4 -1,-1c0,-0.6 0.4,-1 1,-1h19c0.6,0 1,0.4 1,1c0,0.6 -0.4,1 -1,1Z" transform="translate(1, 11)"></path>
        <use transform="translate(7.9, 17.9)" xlink:href="#path-2"></use>
        <use transform="translate(10.9, 17.9)" xlink:href="#path-1"></use>
        <use transform="translate(10.9, 1.9)" xlink:href="#path-2"></use>
        <use transform="translate(7.9, 1.9)" xlink:href="#path-1"></use>
        <path d="M1,21c-0.6,0 -1,-0.4 -1,-1v-19c0,-0.6 0.4,-1 1,-1c0.6,0 1,0.4 1,1v19c0,0.6 -0.4,1 -1,1Z" transform="translate(11, 2)"></path>
    </g>
</svg>