<?xml version="1.0" encoding="UTF-8"?>
<svg version="1.1" viewBox="0 0 24 24" xmlns="http://www.w3.org/2000/svg" xmlns:xlink="http://www.w3.org/1999/xlink">
    <!--Generated by IJSVG (https://github.com/curthard89/IJSVG)-->
    <defs>
        <path id="path-1" d="M3,2h-2c-0.6,0 -1,-0.4 -1,-1c0,-0.6 0.4,-1 1,-1h2c0.6,0 1,0.4 1,1c0,0.6 -0.4,1 -1,1Z"></path>
    </defs>
    <g fill="#FFFFFF">
        <path d="M4,0h-4l2,4v0Z" transform="translate(5, 19)"></path>
        <path d="M3.1,6c-0.4,0 -0.7,-0.2 -0.9,-0.6l-2,-4c-0.2,-0.3 -0.1,-0.7 0,-1c0.2,-0.2 0.6,-0.4 0.9,-0.4h4c0.3,0 0.7,0.2 0.9,0.5c0.2,0.3 0.2,0.7 0,1l-2,4c-0.2,0.3 -0.5,0.5 -0.9,0.5Zm-0.4,-4l0.4,0.8l0.4,-0.8h-0.8Z" transform="translate(3.9, 18)"></path>
        <path d="M5,20h-4c-0.6,0 -1,-0.4 -1,-1v-16c0,-1.6 1.3,-3 3,-3c1.7,0 3,1.3 3,3v16c0,0.6 -0.4,1 -1,1Zm-3,-2h2v-15c0,-0.5 -0.4,-1 -1,-1c-0.6,0 -1,0.4 -1,1v15Z" transform="translate(4, 0)"></path>
        <path d="M7,24h-6c-0.6,0 -1,-0.4 -1,-1v-22c0,-0.6 0.4,-1 1,-1h6c0.6,0 1,0.4 1,1v22c0,0.6 -0.4,1 -1,1Zm-5,-2h4v-20h-4v20Z" transform="translate(12, 0)"></path>
        <use transform="translate(16, 5)" xlink:href="#path-1"></use>
        <use transform="translate(16, 9)" xlink:href="#path-1"></use>
        <use transform="translate(16, 13)" xlink:href="#path-1"></use>
        <use transform="translate(16, 17)" xlink:href="#path-1"></use>
    </g>
</svg>