<?xml version="1.0" encoding="UTF-8"?>
<svg version="1.1" viewBox="0 0 24 24" xmlns="http://www.w3.org/2000/svg" xmlns:xlink="http://www.w3.org/1999/xlink">
    <!--Generated by IJSVG (https://github.com/curthard89/IJSVG)-->
    <defs>
        <path id="path-1" d="M12,9.1c-0.1,0 -0.3,0 -0.4,-0.1l-11,-5c-0.4,-0.2 -0.6,-0.5 -0.6,-0.9c0,-0.4 0.2,-0.7 0.6,-0.9l4.4,-2c0.5,-0.2 1.1,0 1.3,0.5c0.2,0.5 0,1.1 -0.5,1.3l-2.4,1.1l8.6,3.9l8.6,-3.9l-2.4,-1.1c-0.5,-0.2 -0.7,-0.8 -0.5,-1.3c0.2,-0.5 0.8,-0.7 1.3,-0.5l4.4,2c0.4,0.2 0.6,0.5 0.6,0.9c0,0.4 -0.2,0.7 -0.6,0.9l-11,5c-0.1,0.1 -0.3,0.1 -0.4,0.1Z"></path>
    </defs>
    <g fill="#FFFFFF">
        <path d="M12,12c-0.1,0 -0.3,0 -0.4,-0.1l-11,-5c-0.4,-0.2 -0.6,-0.5 -0.6,-0.9c0,-0.4 0.2,-0.7 0.6,-0.9l11,-5c0.3,-0.1 0.6,-0.1 0.8,4.44089e-16l11,5c0.4,0.2 0.6,0.5 0.6,0.9c0,0.4 -0.2,0.7 -0.6,0.9l-11,5c-0.1,0.1 -0.3,0.1 -0.4,0.1Zm-8.6,-6l8.6,3.9l8.6,-3.9l-8.6,-3.9l-8.6,3.9Z" transform="translate(0, 2)"></path>
        <use transform="translate(0, 12.9)" xlink:href="#path-1"></use>
        <use transform="translate(0, 8.9)" xlink:href="#path-1"></use>
    </g>
</svg>