<?xml version="1.0" encoding="UTF-8"?>
<svg version="1.1" viewBox="0 0 24 24" xmlns="http://www.w3.org/2000/svg" xmlns:xlink="http://www.w3.org/1999/xlink">
    <!--Generated by IJSVG (https://github.com/curthard89/IJSVG)-->
    <defs>
        <path id="path-1" d="M0,0h12v2h-12Z"></path>
    </defs>
    <g fill="#FFFFFF">
        <path d="M10.2,24h-6.4c-2.1,0 -3.8,-1.7 -3.8,-3.8v-16.4c0,-2.1 1.7,-3.8 3.8,-3.8h6.3c2.2,0 3.9,1.7 3.9,3.8v16.3c0,2.2 -1.7,3.9 -3.8,3.9Zm-6.4,-22c-1,0 -1.8,0.8 -1.8,1.8v16.3c0,1 0.8,1.8 1.8,1.8h6.3c1,0 1.8,-0.8 1.8,-1.8v-16.3c0,-1 -0.8,-1.8 -1.8,-1.8h-6.3Z" transform="translate(5, 0)"></path>
        <use transform="translate(6, 18)" xlink:href="#path-1"></use>
        <use transform="translate(6, 4)" xlink:href="#path-1"></use>
    </g>
</svg>