<?xml version="1.0" encoding="UTF-8"?>
<svg version="1.1" viewBox="0 0 24 24" xmlns="http://www.w3.org/2000/svg" xmlns:xlink="http://www.w3.org/1999/xlink">
    <!--Generated by IJSVG (https://github.com/curthard89/IJSVG)-->
    <g fill="#FFFFFF">
        <path d="M4.1,5.1c-0.3,0 -0.5,-0.1 -0.7,-0.3l-3,-3c-0.4,-0.4 -0.4,-1 0,-1.4c0.4,-0.4 1,-0.4 1.4,0l3,3c0.4,0.4 0.4,1 0,1.4c-0.2,0.2 -0.4,0.3 -0.7,0.3Z" transform="translate(7.9, 18.9)"></path>
        <path d="M1.1,5.1c-0.3,0 -0.5,-0.1 -0.7,-0.3c-0.4,-0.4 -0.4,-1 0,-1.4l3,-3c0.4,-0.4 1,-0.4 1.4,0c0.4,0.4 0.4,1 0,1.4l-3,3c-0.2,0.2 -0.4,0.3 -0.7,0.3Z" transform="translate(10.9, 18.9)"></path>
        <path d="M4.1,5.1c-0.3,0 -0.5,-0.1 -0.7,-0.3l-3,-3c-0.4,-0.4 -0.4,-1 0,-1.4c0.4,-0.4 1,-0.4 1.4,1.11022e-16l3,3c0.4,0.4 0.4,1 0,1.4c-0.2,0.2 -0.4,0.3 -0.7,0.3Z" transform="translate(10.9, -0.1)"></path>
        <path d="M1.1,5.1c-0.3,0 -0.5,-0.1 -0.7,-0.3c-0.4,-0.4 -0.4,-1 0,-1.4l3,-3c0.4,-0.4 1,-0.4 1.4,1.11022e-16c0.4,0.4 0.4,1 0,1.4l-3,3c-0.2,0.2 -0.4,0.3 -0.7,0.3Z" transform="translate(7.9, -0.1)"></path>
        <path d="M1,24c-0.6,0 -1,-0.4 -1,-1v-22c0,-0.6 0.4,-1 1,-1c0.6,0 1,0.4 1,1v22c0,0.6 -0.4,1 -1,1Z" transform="translate(11, 0)"></path>
    </g>
</svg>