<?xml version="1.0" encoding="UTF-8"?>
<svg version="1.1" viewBox="0 0 30 30" xmlns="http://www.w3.org/2000/svg" xmlns:xlink="http://www.w3.org/1999/xlink">
    <!--Generated by IJSVG (https://github.com/curthard89/IJSVG)-->
    <defs>
        <path id="path-1" d="M0.5,1h3c0.276,0 0.5,-0.224 0.5,-0.5c0,-0.276 -0.224,-0.5 -0.5,-0.5h-3c-0.276,0 -0.5,0.224 -0.5,0.5c0,0.276 0.224,0.5 0.5,0.5Z"></path>
    </defs>
    <g fill="#FFFFFF">
        <use transform="translate(9, 27)" xlink:href="#path-1"></use>
        <use transform="translate(17, 27)" xlink:href="#path-1"></use>
        <path d="M14.5,0h-11c-1.93,0 -3.5,1.57 -3.5,3.5v23c0,1.93 1.57,3.5 3.5,3.5h11c1.93,0 3.5,-1.57 3.5,-3.5v-23c0,-1.93 -1.57,-3.5 -3.5,-3.5Zm-11,1h11c1.379,0 2.5,1.122 2.5,2.5v0.5h-16v-0.5c0,-1.378 1.121,-2.5 2.5,-2.5Zm13.5,24h-16v-20h16v20Zm0,1.5c0,1.378 -1.121,2.5 -2.5,2.5h-11c-1.379,0 -2.5,-1.122 -2.5,-2.5v-0.5h16v0.5Z" transform="translate(6, 0)"></path>
        <path d="M0.5,1h1c0.276,0 0.5,-0.224 0.5,-0.5c0,-0.276 -0.224,-0.5 -0.5,-0.5h-1c-0.276,0 -0.5,0.224 -0.5,0.5c0,0.276 0.224,0.5 0.5,0.5Z" transform="translate(14, 2)"></path>
        <path d="M0.505,1c0.276,0 0.5,-0.224 0.5,-0.5c0,-0.276 -0.224,-0.5 -0.5,-0.5h-0.01c-0.276,0 -0.495,0.224 -0.495,0.5c0,0.276 0.23,0.5 0.505,0.5Z" transform="translate(20.015, 2)"></path>
    </g>
</svg>